<mxfile host="app.diagrams.net" modified="2024-04-15T08:03:44.474Z" agent="Mozilla/5.0 (Windows NT 10.0; Win64; x64) AppleWebKit/537.36 (KHTML, like Gecko) Chrome/106.0.0.0 Safari/537.36 Edg/106.0.1370.34" version="24.2.3" etag="VfE0cc-I916n1V0kpG7L" type="github">
  <diagram name="Page-1" id="OoOxpIGFDEjAzzUG_M0i">
    <mxGraphModel>
      <root>
        <mxCell id="0" />
        <mxCell id="1" parent="0" />
      </root>
    </mxGraphModel>
  </diagram>
</mxfile>
